<?xml version="1.0" standalone="no"?><!DOCTYPE svg PUBLIC "-//W3C//DTD SVG 1.1//EN"
        "http://www.w3.org/Graphics/SVG/1.1/DTD/svg11.dtd">
<svg t="1582891129984" class="icon" viewBox="0 0 1024 1024" version="1.1" xmlns="http://www.w3.org/2000/svg" p-id="5339"
     xmlns:xlink="http://www.w3.org/1999/xlink" width="300" height="300">
    <defs>
        <style type="text/css"></style>
    </defs>
    <path d="M689.257 279.687l-95.113 0c-4.745-41.142-39.749-73.208-82.146-73.208-42.392 0-77.393 32.064-82.139 73.208l-95.118 0c-38.493 0-69.803 31.321-69.803 69.811l0 3.581c0 29.413 18.316 54.591 44.116 64.848l0 329.782c0 38.493 31.314 69.811 69.804 69.811l266.283 0c38.49 0 69.802-31.322 69.802-69.811l0-329.781c25.799-10.26 44.116-35.436 44.116-64.848l0-3.581c0-38.493-31.313-69.813-69.802-69.813zM512 239.587c24.112 0 44.238 17.283 48.692 40.1l-97.375 0c4.452-22.819 24.579-40.1 48.682-40.1zM681.838 747.709c0 20.239-16.465 36.705-36.697 36.705l-266.283 0c-20.23 0-36.697-16.469-36.697-36.705l0-324.818 339.677 0 0 324.818zM725.953 353.08c0 20.239-16.465 36.705-36.697 36.705l-354.514 0c-20.23 0-36.697-16.467-36.697-36.705l0-3.581c0-20.239 16.465-36.705 36.697-36.705l354.515 0c20.23 0 36.697 16.467 36.697 36.705l0 3.581zM423.251 742.074c9.142 0 16.553-7.414 16.553-16.553l0-186.382c0-9.141-7.412-16.554-16.553-16.554s-16.553 7.415-16.553 16.554l0 186.382c-0.002 9.142 7.41 16.553 16.552 16.553zM512 742.074c9.143 0 16.554-7.415 16.554-16.553l0-186.382c0-9.141-7.415-16.554-16.554-16.554-9.142 0-16.553 7.415-16.553 16.554l0 186.382c0 9.142 7.41 16.553 16.552 16.553zM600.749 742.074c9.142 0 16.552-7.414 16.552-16.553l0-186.382c0-9.141-7.412-16.554-16.552-16.554-9.143 0-16.553 7.415-16.553 16.554l0 186.382c-0.002 9.142 7.414 16.553 16.553 16.553z"
          p-id="5340"></path>
</svg>
